<svg width="26" height="20" viewBox="0 0 26 20" fill="none" xmlns="http://www.w3.org/2000/svg">
<path id="Union" fill-rule="evenodd" clip-rule="evenodd" d="M1.37842 0C0.826133 0 0.378418 0.447715 0.378418 0.999999V2.10391C0.378418 2.65619 0.826133 3.10391 1.37842 3.10391H24.3089C24.8612 3.10391 25.3089 2.6562 25.3089 2.10391V1C25.3089 0.447715 24.8612 0 24.3089 0H1.37842ZM0.309082 9.44812C0.309082 8.89583 0.756797 8.44812 1.30908 8.44812H24.2396C24.7918 8.44812 25.2396 8.89583 25.2396 9.44812V10.552C25.2396 11.1043 24.7918 11.552 24.2396 11.552H1.30908C0.756797 11.552 0.309082 11.1043 0.309082 10.552V9.44812ZM0.309082 17.896C0.309082 17.3437 0.756797 16.896 1.30908 16.896H24.2396C24.7918 16.896 25.2396 17.3437 25.2396 17.896V18.9999C25.2396 19.5522 24.7918 19.9999 24.2396 19.9999H1.30908C0.756797 19.9999 0.309082 19.5522 0.309082 18.9999V17.896Z" fill="#C865B2"/>
</svg>
